<?xml version="1.0" encoding="UTF-8"?>
<svg id="_レイヤー_2" data-name="レイヤー 2" xmlns="http://www.w3.org/2000/svg" xmlns:xlink="http://www.w3.org/1999/xlink" viewBox="0 0 200.2 200.2">
  <defs>
    <style>
      .cls-1 {
        fill: none;
      }

      .cls-1, .cls-2 {
        stroke-width: 0px;
      }

      .cls-2 {
        fill: url(#_名称未設定グラデーション_13);
      }
    </style>
    <linearGradient id="_名称未設定グラデーション_13" data-name="名称未設定グラデーション 13" x1="43.72" y1="43.71" x2="156.65" y2="156.64" gradientUnits="userSpaceOnUse">
      <stop offset="0" stop-color="#0077d3"/>
      <stop offset="1" stop-color="#003b6f"/>
    </linearGradient>
  </defs>
  <g id="_ロゴマーク" data-name="ロゴマーク">
    <g>
      <path class="cls-2" d="M89.01,121.03c2.57-2.28,5.98-3.28,9.39-2.94.59.06,1.19.09,1.79.09,5.82,0,11-2.77,14.28-7.05,1.92-2.51,4.84-4.06,7.98-4.43l7.93-.92c3.45-.4,6.98.64,9.49,3.05,2.17,2.09,5.11,3.36,8.36,3.35,6.29-.03,11.59-5.06,11.93-11.34.37-6.93-5.14-12.66-11.98-12.66-3.2,0-6.1,1.25-8.25,3.29-2.58,2.45-6.2,3.5-9.74,3.09l-4.77-.56c-3.37-.39-4.91-4.42-2.65-6.96l16.71-18.82c2.21-2.49,5.36-4.05,8.69-4.05.67,0,1.35-.06,2.04-.17,5.3-.91,9.44-5.36,9.92-10.72.64-7.13-4.96-13.11-11.95-13.11-3.39,0-6.44,1.41-8.63,3.66-2.22,2.3-5.31,3.54-8.5,3.54h-13.74c-3.19,0-6.28-1.24-8.5-3.54-2.18-2.26-5.24-3.66-8.63-3.66s-6.44,1.41-8.63,3.66c-2.22,2.3-5.31,3.54-8.5,3.54h-13.76c-3.22,0-6.31-1.29-8.56-3.59-2.19-2.24-5.24-3.62-8.62-3.61-6.29.03-11.6,5.06-11.93,11.34-.37,6.93,5.13,12.66,11.98,12.66,3.39,0,6.44-1.41,8.63-3.66,2.22-2.3,5.31-3.54,8.5-3.54h13.76c3.19,0,6.28,1.24,8.5,3.54,2.18,2.26,5.24,3.66,8.63,3.66s6.44-1.41,8.63-3.66c2.22-2.3,5.31-3.54,8.5-3.54h8.17c3.86,0,5.68,4.78,2.79,7.34l-16.9,15.01c-2.57,2.28-5.98,3.28-9.39,2.94-.59-.06-1.19-.09-1.8-.09-5.82,0-10.99,2.76-14.28,7.05-1.92,2.51-4.84,4.06-7.98,4.42l-7.95.93c-3.45.4-6.98-.64-9.48-3.05-2.17-2.09-5.11-3.37-8.36-3.35-6.29.03-11.59,5.06-11.93,11.34-.37,6.93,5.13,12.66,11.98,12.66,3.2,0,6.1-1.25,8.25-3.29,2.58-2.45,6.2-3.5,9.74-3.09l4.79.56c3.37.39,4.91,4.42,2.65,6.96l-16.72,18.82c-2.21,2.49-5.36,4.05-8.69,4.04-.67,0-1.35.05-2.04.17-5.31.9-9.45,5.34-9.94,10.7-.65,7.13,4.95,13.13,11.95,13.13,3.39,0,6.44-1.41,8.63-3.66,2.22-2.3,5.31-3.54,8.5-3.54h13.76c3.19,0,6.28,1.24,8.5,3.54,2.18,2.26,5.24,3.66,8.63,3.66s6.44-1.41,8.63-3.66c2.22-2.3,5.31-3.54,8.5-3.54h13.74c3.22,0,6.31,1.29,8.56,3.59,2.19,2.24,5.24,3.62,8.62,3.61,6.29-.03,11.6-5.06,11.93-11.34.37-6.93-5.13-12.66-11.98-12.66-3.39,0-6.44,1.41-8.63,3.66-2.22,2.3-5.31,3.54-8.5,3.54h-13.74c-3.19,0-6.28-1.24-8.5-3.54-2.18-2.26-5.24-3.66-8.63-3.66s-6.44,1.41-8.63,3.66c-2.22,2.3-5.31,3.54-8.5,3.54h-8.17c-3.86,0-5.68-4.78-2.79-7.34l16.89-15.01Z"/>
      <path class="cls-1" d="M0,0v200.2h200.2V0H0Z"/>
    </g>
  </g>
</svg>