<?xml version="1.0" encoding="UTF-8"?>
<svg id="_レイヤー_1" data-name="レイヤー 1" xmlns="http://www.w3.org/2000/svg" viewBox="0 0 277.06 255.1">
  <defs>
    <style>
      .cls-1 {
        fill: #111f72;
      }

      .cls-2 {
        fill: #ffe000;
      }

      .cls-3 {
        fill: #fff;
      }
    </style>
  </defs>
  <g>
    <g>
      <path class="cls-2" d="M79.05,171.05s-9.66,17.88-9.66,27.54,46.87,7.25,46.87-3.38-8.7-30.93-13.05-34.55c-4.35-3.62-13.05,2.17-24.16,10.39Z"/>
      <path class="cls-1" d="M87.9,208.17c-3.85,0-9.39-.28-13.95-1.62-6.67-1.96-8.07-5.41-8.07-7.95,0-10.25,9.05-27.3,10.09-29.21l.37-.69.63-.46c10.63-7.86,21.62-15.98,28.48-10.26,5.44,4.53,14.31,26.07,14.31,37.24,0,4.57-3.96,8.06-11.78,10.36-5.6,1.65-12.92,2.6-20.08,2.6ZM72.89,198.41c2.12,2.67,19.55,4.45,33.12.44,5.57-1.64,6.75-3.37,6.75-3.64,0-10.04-8.46-29.09-11.79-31.86-2.54-2.11-13.76,6.03-19.2,10.05-2.76,5.25-8.77,18.1-8.88,25.01Z"/>
    </g>
    <g>
      <rect class="cls-3" x="48.83" y="180.15" width="57.66" height="36.05" rx="7.13" ry="7.13"/>
      <path class="cls-1" d="M99.36,219.2h-43.4c-5.59,0-10.13-4.55-10.13-10.13v-21.78c0-5.59,4.55-10.13,10.13-10.13h43.4c5.59,0,10.13,4.55,10.13,10.13v21.78c0,5.59-4.55,10.13-10.13,10.13ZM55.97,183.15c-2.28,0-4.13,1.85-4.13,4.13v21.78c0,2.28,1.85,4.13,4.13,4.13h43.4c2.28,0,4.13-1.85,4.13-4.13v-21.78c0-2.28-1.85-4.13-4.13-4.13h-43.4Z"/>
    </g>
    <g>
      <path class="cls-2" d="M48.83,190.49h57.66v28.92c0,3.94-3.2,7.13-7.13,7.13h-43.4c-3.94,0-7.13-3.2-7.13-7.13v-28.92h0Z"/>
      <path class="cls-1" d="M99.36,229.54h-43.4c-5.59,0-10.13-4.55-10.13-10.13v-31.92h63.66v31.92c0,5.59-4.55,10.13-10.13,10.13ZM51.83,193.49v25.92c0,2.28,1.85,4.13,4.13,4.13h43.4c2.28,0,4.13-1.85,4.13-4.13v-25.92h-51.66Z"/>
    </g>
    <g id="_困惑" data-name="困惑">
      <g>
        <g>
          <path class="cls-1" d="M205.74,97.14c-31.08,0-57.34,23.98-60.25,54.79-.19-.01-.38-.02-.57-.02h-42.08c-2.67,0-5.18,1.43-6.55,3.73-5.2,8.76-10.54,27.4-2.28,46.2-.59,1.71-.95,3.76-1,6.25-.3,17.41,5.83,19.27,5.83,19.27,0,0-18.34-.47-17.59,5.59.75,6.05,45.57,2.9,47.32,0,1.19-1.98,4.8-4.7,6.41-10.33,3.75-.1,7.57-.38,11.39-.85,10.18-.2,19.61-4.6,27.34-12.75,9.64,6.01,20.69,9.18,32.03,9.18,33.37,0,60.52-27.15,60.52-60.52s-27.15-60.52-60.52-60.52Z"/>
          <path class="cls-2" d="M207.8,104.8c-30.16-1.15-54.97,22.96-54.97,52.87,0,3.1.28,6.13.79,9.08-2.24-2.72-5.09-5.17-8.71-7.21h-42.08s-16.3,27.47,7.06,52.62c0,0,4.9,1.71,13.48,2.5.64,13.63,5.77,15.2,5.77,15.2,0,0-18.34-.47-17.59,5.59.75,6.05,44.16,1.22,47.32,0,3.93-1.52,11.38-8.89,5.11-27.83,2.48-1.96,4.67-4.21,6.56-6.54,1.02-1.26,2.82-1.51,4.13-.56,8.72,6.34,19.45,10.08,31.06,10.08,29.9,0,54.01-24.81,52.87-54.97-1.04-27.42-23.39-49.77-50.81-50.81Z"/>
          <path class="cls-3" d="M123.42,192.33c3.53-2.65,8.02-4.05,13-4.05,2.45,0,4.22.34,4.71.44.4.09.79.2,1.17.35l.2.08c.18-3.81-.64-13.66-1.36-19.27-.95.05-40.65,1.96-42.71,1.71,3.59,13.55,10.49,31.58,17.21,34.96,1.06-7.59,4.69-11.88,7.79-14.21Z"/>
          <path class="cls-1" d="M160.55,181.37c-1.34,0-2.45-1.06-2.5-2.41-.06-1.62-1.11-39.84,24.91-59.79,1.1-.84,2.67-.63,3.51.46.84,1.1.63,2.67-.46,3.51-23.96,18.37-22.97,55.28-22.96,55.65.05,1.38-1.03,2.54-2.41,2.58-.03,0-.06,0-.09,0Z"/>
          <path class="cls-1" d="M158.17,169.12c-1.28,0-2.37-.98-2.49-2.28-.04-.4-3.18-40.29,29.02-56.31,1.24-.62,2.74-.11,3.35,1.12.62,1.24.11,2.74-1.12,3.35-29.18,14.52-26.3,51.03-26.27,51.39.12,1.38-.89,2.59-2.27,2.71-.08,0-.15,0-.22,0Z"/>
          <path class="cls-1" d="M171.59,205.11l-.86,1.23c-2.51-6.82-5.88-10.14-6.12-10.37-1.4-1.34-3.61-1.29-4.95.11-1.34,1.4-1.29,3.61.11,4.95.07.06,5.87,6.03,6.6,19.02.25,9.89-4.58,14.26-7.49,15.39-3.16,1.22-46.57,6.05-47.32,0-.75-6.05,17.59-5.59,17.59-5.59,0,0-6.13-1.86-5.83-19.27.02-1.25.13-2.39.3-3.44,2.2-13.49,15.82-10.59,15.82-10.59l.23.09,2.38-3.1,2.71-3.52-2.27-.86-.2-.08c-.38-.15-.77-.26-1.17-.35-.49-.1-2.26-.44-4.71-.44-4.98,0-9.47,1.4-13,4.05-3.1,2.33-6.73,6.62-7.79,14.21-.17,1.21-.28,2.5-.3,3.89-.08,5.01.31,9.11,1.02,12.46-6.89,1.45-9.14,4.01-10.07,5.06-2.09,2.37-3.03,5.37-2.65,8.46,1.24,10,14.74,10,22,10h0c11.88,0,32.15-1.97,36.15-3.52,7.47-2.89,17.65-14.07,9.82-37.78Z"/>
          <path class="cls-1" d="M253.21,155.45c-.96-12.27-6.2-22.88-14.75-29.86-8.77-7.16-20.56-10.24-33.22-8.68-16.23,2-28.02,12.02-34.1,28.96-4.43,12.34-4.24,23.97-4.23,24.46.05,2.21,1.84,3.96,4.08,3.91,2.21-.05,3.96-1.88,3.91-4.08,0-.41-.52-41.38,31.31-45.31,10.47-1.29,20.12,1.17,27.18,6.94,6.94,5.67,11.03,14.07,11.83,24.29.92,11.74-4,20.11-8.29,25.06-6.19,7.15-14.95,11.76-23.45,12.32-6.87.46-12.15-1.55-13.77-5.24-.42-.95-.56-1.99-.44-3.1,2.48.56,5.13-.76,6.07-3.3l6.04-16.32.39-.39,5.9,16.73c1.09,3.09,4.71,4.44,7.55,2.81l2.42-1.38c2.9-1.66,3.54-5.57,1.3-8.06l-11.5-12.81.13-.39,16.62,3c3.22.58,6.18-1.89,6.18-5.16v-2.35c0-3.32-3.05-5.81-6.31-5.14l-16.23,3.34-.13-.39,11.54-13.34c2.16-2.5,1.51-6.35-1.36-7.99l-2.3-1.32c-2.83-1.62-6.45-.29-7.55,2.78l-5.87,16.39h-.39l-5.77-16.28c-1.09-3.07-4.68-4.42-7.52-2.82l-2.51,1.41c-2.89,1.62-3.57,5.48-1.41,7.99l11.29,13.17-.26.39-15.56-3.3c-3.26-.69-6.34,1.8-6.34,5.13v2.21c0,3.31,3.02,5.79,6.27,5.15l15.89-3.14.26.13-11.65,13.46c-.7.81-1.1,1.77-1.23,2.75-2.31,4.5-2.66,9.17-.84,13.33,2.78,6.33,10.06,10.08,19.28,10.08.77,0,1.55-.03,2.34-.08,10.59-.7,21.42-6.34,28.97-15.07,7.47-8.63,11.1-19.62,10.21-30.92Z"/>
        </g>
        <path class="cls-1" d="M126.16,234.27c-35.71-.09-45.75-10.43-47.4-12.51-.73-.91-1.16-2-1.26-3.15-2.63-30.74,8.68-53.82,9.17-54.78,1.04-2.08,3.24-3.41,5.65-3.41h68.36c2.41,0,4.61,1.33,5.65,3.41.48.97,11.8,24.04,9.17,54.78-.1,1.14-.54,2.24-1.26,3.15-1.65,2.08-11.7,12.42-47.4,12.51-.07,0-.14,0-.21,0-.03,0-.39,0-.46,0Z"/>
        <path class="cls-2" d="M159.34,167.63h-65.7s-10.67,21.36-8.24,49.7c0,0,7.73,9.7,40.97,9.75h0s.08,0,.12,0,.08,0,.12,0h0c33.25-.05,40.97-9.75,40.97-9.75,2.42-28.33-8.24-49.7-8.24-49.7Z"/>
        <path class="cls-3" d="M86.2,171.59s12.26,15.13,18.12,23.08c1.41,1.91,4.2,2.06,5.8.31,6.03-6.61,19.27-20.39,26.34-22.1l-18.36-2.58h-18.04l-13.85,1.29Z"/>
        <g>
          <path class="cls-2" d="M144.75,175.6s-9.66,17.88-9.66,27.54,46.87,7.25,46.87-3.38-8.7-30.93-13.05-34.55c-4.35-3.62-13.05,2.17-24.16,10.39Z"/>
          <path class="cls-1" d="M153.59,212.72c-3.85,0-9.39-.28-13.94-1.62-6.67-1.96-8.07-5.41-8.07-7.95,0-10.25,9.05-27.3,10.09-29.21l.37-.69.63-.46c10.63-7.86,21.62-15.98,28.48-10.26,5.44,4.53,14.31,26.06,14.31,37.24,0,4.57-3.96,8.06-11.78,10.36-5.6,1.65-12.92,2.6-20.08,2.6ZM138.58,202.96c2.12,2.67,19.55,4.45,33.13.44,5.57-1.64,6.75-3.37,6.75-3.64,0-10.04-8.46-29.09-11.79-31.86-2.54-2.11-13.76,6.03-19.2,10.04-2.76,5.25-8.77,18.1-8.88,25.02Z"/>
        </g>
        <g id="_頭" data-name="頭">
          <g>
            <path class="cls-1" d="M143.83,175.19c-5.92,0-11.37-.93-16.23-2.78-9.49,3.71-22.98,3.71-32.46,0-4.86,1.85-10.31,2.78-16.23,2.78-29.41.59-40.92-24.22-40.97-40.97,0-14.23,9.04-37.27,33.32-40.42-3.74-8.48-4.72-15.12-3.02-20.27,1.76-5.69,7.37-9.38,13.18-9.33,4.83,0,9.45,2.32,13.77,6.89,5.81-1.75,11.96-2.31,18.02-2.16,4.91.14,9.71.76,14.34,2.16,4.32-4.58,8.94-6.89,13.77-6.89,5.81-.04,11.42,3.64,13.18,9.33,1.7,5.15.72,11.79-3.02,20.27,24.27,3.16,33.32,26.18,33.32,40.42-.06,16.76-11.55,41.55-40.97,40.97Z"/>
            <path class="cls-3" d="M143.83,101.76s-.01-3.52-1.8-7.88c-.2-.5-.42-1-.67-1.52-13.23-.46-31.8,4.17-33.75,29.8h-8.49c-1.95-25.64-4.52-30.25-17.75-29.8-.25.51-.47,1.02-.67,1.52-1.78,4.36-1.8,7.88-1.8,7.88-32.46,0-32.46,32.46-32.46,32.46,0,0,0,32.46,32.46,32.46,6.7,0,12.01-1.38,16.23-3.58,4.22,2.19,9.53,3.58,16.23,3.58s12.01-1.38,16.23-3.58c4.22,2.19,9.53,3.58,16.23,3.58,32.46,0,32.46-32.46,32.46-32.46,0,0,0-32.46-32.46-32.46Z"/>
            <path class="cls-2" d="M99.12,131.08h8.49c1.95-25.63,20.52-39.18,33.75-38.72.25.51.47,1.02.67,1.52,3.07-6.08,7.87-17.58,1.98-20.52-5.35-2.67-10.69,3.45-13.72,7.95-10.81-5.28-27.05-5.28-37.86,0-3.03-4.5-8.37-10.62-13.72-7.95-5.89,2.95-1.09,14.44,1.98,20.52.2-.5.42-1,.67-1.52,13.23-.45,15.8,13.08,17.75,38.72Z"/>
          </g>
        </g>
      </g>
    </g>
    <path class="cls-2" d="M69.85,88.17s10.15,11.37,35.34,11.37,48.74-12.19,48.74-12.19l-3.66-30.06h-76.77l-3.66,30.87Z"/>
    <path class="cls-1" d="M109.82,109.09c-32.53,0-46.25-13.34-46.81-13.91-1.38-1.38-1.98-3.36-1.6-5.28l6.1-30.49c.55-2.73,2.95-4.7,5.73-4.7h73.17c2.79,0,5.19,1.97,5.73,4.7l6.1,30.49c.38,1.92-.22,3.9-1.6,5.28-.57.57-14.28,13.91-46.81,13.91Z"/>
    <path class="cls-2" d="M144.83,61.48h-70.01l-5.83,29.17s11.67,11.67,40.84,11.67,40.84-11.67,40.84-11.67l-5.83-29.17Z"/>
    <g>
      <path class="cls-1" d="M109.82,94.14c-1.44,0-2.85-.24-4.19-.71l-67.88-23.83c-4.25-1.49-7-5.03-7-9.01,0-3.98,2.75-7.52,7-9.01l67.87-23.83c1.34-.47,2.75-.71,4.19-.71s2.85.24,4.19.71l67.88,23.83c4.25,1.49,7,5.03,7,9.01,0,3.98-2.75,7.52-7,9.01l-67.88,23.83c-1.34.47-2.75.71-4.19.71Z"/>
      <path class="cls-2" d="M108.28,83.97l-67.88-20.97c-3.44-1.16-3.44-5.24,0-6.41l67.88-21.97c.99-.34,2.1-.34,3.09,0l67.88,21.97c3.44,1.16,3.44,5.24,0,6.41l-67.88,20.97c-.99.34-2.1.34-3.09,0Z"/>
    </g>
    <polygon class="cls-1" points="104.91 51.61 39.84 64.65 47.09 68.6 109.02 55.95 104.91 51.61"/>
    <rect class="cls-1" x="41.93" y="66.1" width="6.03" height="36.79" rx="2.26" ry="2.26"/>
    <ellipse class="cls-1" cx="109.82" cy="53.38" rx="8.4" ry="5.56"/>
    <path class="cls-1" d="M94.7,129.16c-2.89,0-4.02,3.75-1.62,5.35l8.66,5.78c.98.65,2.26.65,3.24,0l8.66-5.78c2.4-1.6,1.27-5.35-1.62-5.35h-17.33Z"/>
    <circle class="cls-1" cx="44.95" cy="89.38" r="6.95"/>
    <path class="cls-1" d="M107.97,197.2l-1.89-2.59c-4.35-5.96-15.3-20.94-15.3-20.94l4.84-3.54s8.4,11.49,13.41,18.35c4.91-4.13,15.98-13.49,21.92-18.95l4.06,4.42c-7.85,7.21-24.42,21.05-24.59,21.19l-2.46,2.05Z"/>
    <g>
      <path class="cls-2" d="M86.92,171.1s-9.02,0-6.44,3.06c2.58,3.06,16.27,17.88,28.03,24.48,0,0,33.91-20.13,43.73-25.61,9.88-5.51-18.93-3.54-18.93-3.54l-24.97,22.71-16.27-21.26-5.15.16Z"/>
      <path class="cls-1" d="M108.55,202.11l-1.51-.85c-12.07-6.78-25.83-21.57-28.85-25.17-1.71-2.03-1.13-3.88-.81-4.58,1.05-2.26,4.24-3.41,9.5-3.41l6.65-.21,15.22,19.89,23.32-21.22,1.04-.07c22.54-1.54,23.48,1.64,24.05,3.54.62,2.1-.54,4-3.46,5.62-9.68,5.39-43.32,25.37-43.66,25.57l-1.49.88ZM134.55,172.42l-23.04,20.96c8.47-5.02,26.67-15.77,36.04-21.13-3.56-.17-8.5-.09-13,.18ZM84.55,174.24c3.93,4.29,12.33,12.84,20.56,18.68l-14.49-18.93-3.71.11c-.78,0-1.61.05-2.37.14Z"/>
    </g>
    <polygon class="cls-1" points="104.8 171.1 108.18 176.9 104.64 182.06 109.15 190.27 117.04 182.06 112.21 176.9 117.36 171.1 104.8 171.1"/>
    <path class="cls-1" d="M103.68,146.48c3.19-.61,8.57-1.96,13.31-4.71,1.52-.88,3.45.29,3.32,2.04,0,.03,0,.06,0,.1-.28,3.27-.85,8.9-8.45,11.16-4.94,1.46-8.1-2.42-9.71-5.31-.74-1.33.04-2.99,1.54-3.27Z"/>
    <g>
      <g>
        <circle class="cls-3" cx="84.29" cy="115.72" r="13.78"/>
        <path class="cls-1" d="M84.29,133c-9.53,0-17.28-7.75-17.28-17.28s7.75-17.28,17.28-17.28,17.28,7.75,17.28,17.28-7.75,17.28-17.28,17.28ZM84.29,105.44c-5.67,0-10.28,4.61-10.28,10.28s4.61,10.28,10.28,10.28,10.28-4.61,10.28-10.28-4.61-10.28-10.28-10.28Z"/>
      </g>
      <g>
        <circle class="cls-3" cx="122.15" cy="115.72" r="13.78"/>
        <path class="cls-1" d="M122.15,133c-9.53,0-17.28-7.75-17.28-17.28s7.75-17.28,17.28-17.28,17.28,7.75,17.28,17.28-7.75,17.28-17.28,17.28ZM122.15,105.44c-5.67,0-10.28,4.61-10.28,10.28s4.61,10.28,10.28,10.28,10.28-4.61,10.28-10.28-4.61-10.28-10.28-10.28Z"/>
      </g>
      <path class="cls-1" d="M108.37,119.22h-10.31c-1.93,0-3.5-1.57-3.5-3.5s1.57-3.5,3.5-3.5h10.31c1.93,0,3.5,1.57,3.5,3.5s-1.57,3.5-3.5,3.5Z"/>
      <rect class="cls-1" x="63.08" y="99.89" width="7" height="13.33" transform="translate(-55.84 78.29) rotate(-45)"/>
      <rect class="cls-1" x="133.53" y="103.54" width="22.68" height="7" transform="translate(-35.08 114.87) rotate(-38.95)"/>
    </g>
    <path class="cls-1" d="M63.39,219.85c-1.66,0-3-1.34-3-3v-16.43c0-1.66,1.34-3,3-3s3,1.34,3,3v16.43c0,1.66-1.34,3-3,3Z"/>
  </g>
  <path class="cls-1" d="M176.61,11.04l-3.13,9.4c-.11.33-.37.6-.71.71l-9.4,3.13c-1.02.34-1.02,1.79,0,2.13l9.4,3.13c.33.11.6.37.71.71l3.13,9.4c.34,1.02,1.79,1.02,2.13,0l3.13-9.4c.11-.33.37-.6.71-.71l9.4-3.13c1.02-.34,1.02-1.79,0-2.13l-9.4-3.13c-.33-.11-.6-.37-.71-.71l-3.13-9.4c-.34-1.02-1.79-1.02-2.13,0Z"/>
  <path class="cls-1" d="M219.38,56.2l-2.49,7.47c-.09.27-.3.47-.56.56l-7.47,2.49c-.81.27-.81,1.42,0,1.69l7.47,2.49c.27.09.47.3.56.56l2.49,7.47c.27.81,1.42.81,1.69,0l2.49-7.47c.09-.27.3-.47.56-.56l7.47-2.49c.81-.27.81-1.42,0-1.69l-7.47-2.49c-.27-.09-.47-.3-.56-.56l-2.49-7.47c-.27-.81-1.42-.81-1.69,0Z"/>
  <path class="cls-1" d="M20.15,153.74l-2.49,7.47c-.09.27-.3.47-.56.56l-7.47,2.49c-.81.27-.81,1.42,0,1.69l7.47,2.49c.27.09.47.3.56.56l2.49,7.47c.27.81,1.42.81,1.69,0l2.49-7.47c.09-.27.3-.47.56-.56l7.47-2.49c.81-.27.81-1.42,0-1.69l-7.47-2.49c-.27-.09-.47-.3-.56-.56l-2.49-7.47c-.27-.81-1.42-.81-1.69,0Z"/>
</svg>