<?xml version="1.0" encoding="UTF-8"?>
<svg id="_レイヤー_1" data-name="レイヤー 1" xmlns="http://www.w3.org/2000/svg" viewBox="0 0 262.46 297.98">
  <defs>
    <style>
      .cls-1 {
        fill: #111f72;
      }

      .cls-2 {
        fill: #ffe000;
      }

      .cls-3 {
        fill: #fff;
      }
    </style>
  </defs>
  <g>
    <path class="cls-2" d="M209.02,175.95s17.59-49.51-21.5-107.49c-39.09-57.98-27.36-11.07-27.36-11.07,0,0-24.76-48.21-39.09-48.21s-39.09,48.21-39.09,48.21c0,0,11.73-46.9-27.36,11.07-39.09,57.98-21.5,107.49-21.5,107.49,0,0-22.15-53.42-22.15,5.86s61.24,76.22,61.24,76.22c19.54,5.21,48.86,3.26,48.86,3.26,0,0,29.32,1.95,48.86-3.26,0,0,61.24-16.94,61.24-76.22s-22.15-5.86-22.15-5.86Z"/>
    <path class="cls-3" d="M174.02,156.09s10.59-29.8-12.94-64.7c-23.53-34.9-16.47-6.67-16.47-6.67,0,0-14.9-29.02-23.53-29.02s-23.53,29.02-23.53,29.02c0,0,7.06-28.23-16.47,6.67-23.53,34.9-12.94,64.7-12.94,64.7,0,0-13.33-32.16-13.33,3.53s36.86,45.88,36.86,45.88c11.76,3.14,29.41,1.96,29.41,1.96,0,0,17.65,1.18,29.41-1.96,0,0,36.86-10.2,36.86-45.88s-13.33-3.53-13.33-3.53Z"/>
    <g id="_困惑" data-name="困惑">
      <g>
        <g>
          <path class="cls-1" d="M189.96,136c-31.08,0-57.34,23.98-60.25,54.79-.19-.01-.38-.02-.57-.02h-42.08c-2.67,0-5.18,1.43-6.55,3.73-5.2,8.76-10.54,27.4-2.28,46.2-.59,1.71-.95,3.76-1,6.25-.3,17.41,5.83,19.27,5.83,19.27,0,0-18.34-.47-17.59,5.59.75,6.05,45.57,2.9,47.32,0,1.19-1.98,4.8-4.7,6.41-10.33,3.75-.1,7.57-.38,11.39-.85,10.18-.2,19.61-4.6,27.34-12.75,9.64,6.01,20.69,9.18,32.03,9.18,33.37,0,60.52-27.15,60.52-60.52s-27.15-60.52-60.52-60.52Z"/>
          <path class="cls-2" d="M192.02,143.65c-30.16-1.15-54.97,22.96-54.97,52.87,0,3.1.28,6.13.79,9.08-2.24-2.72-5.09-5.17-8.71-7.21h-42.08s-16.3,27.47,7.06,52.62c0,0,4.9,1.71,13.48,2.5.64,13.63,5.77,15.2,5.77,15.2,0,0-18.34-.47-17.59,5.59.75,6.05,44.16,1.22,47.32,0,3.93-1.52,11.38-8.89,5.11-27.83,2.48-1.96,4.67-4.21,6.56-6.54,1.02-1.26,2.82-1.51,4.13-.56,8.72,6.34,19.45,10.08,31.06,10.08,29.9,0,54.01-24.81,52.87-54.97-1.04-27.42-23.39-49.77-50.81-50.81Z"/>
          <path class="cls-3" d="M107.64,231.19c3.53-2.65,8.02-4.05,13-4.05,2.45,0,4.22.34,4.71.44.4.09.79.2,1.17.35l.2.08c.18-3.81-.64-13.66-1.36-19.27-.95.05-40.65,1.96-42.71,1.71,3.59,13.55,10.49,31.58,17.21,34.96,1.06-7.59,4.69-11.88,7.79-14.21Z"/>
          <path class="cls-1" d="M144.77,220.22c-1.34,0-2.45-1.06-2.5-2.41-.06-1.62-1.11-39.84,24.91-59.79,1.1-.84,2.67-.63,3.51.46.84,1.1.63,2.67-.46,3.51-23.96,18.37-22.97,55.28-22.96,55.65.05,1.38-1.03,2.54-2.41,2.58-.03,0-.06,0-.09,0Z"/>
          <path class="cls-1" d="M142.39,207.98c-1.28,0-2.37-.98-2.49-2.28-.04-.4-3.18-40.29,29.02-56.31,1.24-.62,2.74-.11,3.35,1.12.62,1.24.11,2.74-1.12,3.35-29.18,14.52-26.3,51.03-26.27,51.39.12,1.38-.89,2.59-2.27,2.71-.08,0-.15,0-.22,0Z"/>
          <path class="cls-1" d="M155.81,243.97l-.86,1.23c-2.51-6.82-5.88-10.14-6.12-10.37-1.4-1.34-3.61-1.29-4.95.11-1.34,1.4-1.29,3.61.11,4.95.07.06,5.87,6.03,6.6,19.02.25,9.89-4.58,14.26-7.49,15.39-3.16,1.22-46.57,6.05-47.32,0-.75-6.05,17.59-5.59,17.59-5.59,0,0-6.13-1.86-5.83-19.27.02-1.25.13-2.39.3-3.44,2.2-13.49,15.82-10.59,15.82-10.59l.23.09,2.38-3.1,2.71-3.52-2.27-.86-.2-.08c-.38-.15-.77-.26-1.17-.35-.49-.1-2.26-.44-4.71-.44-4.98,0-9.47,1.4-13,4.05-3.1,2.33-6.73,6.62-7.79,14.21-.17,1.21-.28,2.5-.3,3.89-.08,5.01.31,9.11,1.02,12.46-6.89,1.45-9.14,4.01-10.07,5.06-2.09,2.37-3.03,5.37-2.65,8.46,1.24,10,14.74,10,22,10h0c11.88,0,32.15-1.97,36.15-3.52,7.47-2.89,17.65-14.07,9.82-37.78Z"/>
          <path class="cls-1" d="M237.43,194.3c-.96-12.27-6.2-22.88-14.75-29.86-8.77-7.16-20.56-10.24-33.22-8.68-16.23,2-28.02,12.02-34.1,28.96-4.43,12.34-4.24,23.97-4.23,24.46.05,2.21,1.84,3.96,4.08,3.91,2.21-.05,3.96-1.88,3.91-4.08,0-.41-.52-41.38,31.31-45.31,10.47-1.29,20.12,1.17,27.18,6.94,6.94,5.67,11.03,14.07,11.83,24.29.92,11.74-4,20.11-8.29,25.06-6.19,7.15-14.95,11.76-23.45,12.32-6.87.46-12.15-1.55-13.77-5.24-.42-.95-.56-1.99-.44-3.1,2.48.56,5.13-.76,6.07-3.3l6.04-16.32.39-.39,5.9,16.73c1.09,3.09,4.71,4.44,7.55,2.81l2.42-1.38c2.9-1.66,3.54-5.57,1.3-8.06l-11.5-12.81.13-.39,16.62,3c3.22.58,6.18-1.89,6.18-5.16v-2.35c0-3.32-3.05-5.81-6.31-5.14l-16.23,3.34-.13-.39,11.54-13.34c2.16-2.5,1.51-6.35-1.36-7.99l-2.3-1.32c-2.83-1.62-6.45-.29-7.55,2.78l-5.87,16.39h-.39l-5.77-16.28c-1.09-3.07-4.68-4.42-7.52-2.82l-2.51,1.41c-2.89,1.62-3.57,5.48-1.41,7.99l11.29,13.17-.26.39-15.56-3.3c-3.26-.69-6.34,1.8-6.34,5.13v2.21c0,3.31,3.02,5.79,6.27,5.15l15.89-3.14.26.13-11.65,13.46c-.7.81-1.1,1.77-1.23,2.75-2.31,4.5-2.66,9.17-.84,13.33,2.78,6.33,10.06,10.08,19.28,10.08.77,0,1.55-.03,2.34-.08,10.59-.7,21.42-6.34,28.97-15.07,7.47-8.63,11.1-19.62,10.21-30.92Z"/>
        </g>
        <g id="_頭" data-name="頭">
          <g>
            <path class="cls-1" d="M128.05,214.04c-5.92,0-11.37-.93-16.23-2.78-9.49,3.71-22.98,3.71-32.46,0-4.86,1.85-10.31,2.78-16.23,2.78-29.41.59-40.92-24.22-40.97-40.97,0-14.23,9.04-37.27,33.32-40.42-3.74-8.48-4.72-15.12-3.02-20.27,1.76-5.69,7.37-9.38,13.18-9.33,4.83,0,9.45,2.32,13.77,6.89,5.81-1.75,11.96-2.31,18.02-2.16,4.91.14,9.71.76,14.34,2.16,4.32-4.58,8.94-6.89,13.77-6.89,5.81-.04,11.42,3.64,13.18,9.33,1.7,5.15.72,11.79-3.02,20.27,24.27,3.16,33.32,26.18,33.32,40.42-.06,16.76-11.55,41.55-40.97,40.97Z"/>
            <path class="cls-3" d="M128.05,140.61s-.01-3.52-1.8-7.88c-.2-.5-.42-1-.67-1.52-13.23-.46-31.8,4.17-33.75,29.8h-8.49c-1.95-25.64-4.52-30.25-17.75-29.8-.25.51-.47,1.02-.67,1.52-1.78,4.36-1.8,7.88-1.8,7.88-32.46,0-32.46,32.46-32.46,32.46,0,0,0,32.46,32.46,32.46,6.7,0,12.01-1.38,16.23-3.58,4.22,2.19,9.53,3.58,16.23,3.58s12.01-1.38,16.23-3.58c4.22,2.19,9.53,3.58,16.23,3.58,32.46,0,32.46-32.46,32.46-32.46,0,0,0-32.46-32.46-32.46Z"/>
            <g>
              <path class="cls-2" d="M83.34,161.01h8.49c1.95-25.63,20.52-30.26,33.75-29.8.25.51.47,1.02.67,1.52,3.07-6.08,7.87-17.58,1.98-20.52-5.35-2.67-10.69,3.45-13.72,7.95-10.81-5.28-27.05-5.28-37.86,0-3.03-4.5-8.37-10.62-13.72-7.95-5.89,2.95-1.09,14.44,1.98,20.52.2-.5.42-1,.67-1.52,13.23-.45,15.8,4.16,17.75,29.8Z"/>
              <path class="cls-1" d="M78.92,160.01c-2.89,0-4.02,3.75-1.62,5.35l8.66,5.78c.98.65,2.26.65,3.24,0l8.66-5.78c2.4-1.6,1.27-5.35-1.62-5.35h-17.33Z"/>
            </g>
            <path class="cls-1" d="M108.78,159.44c-1.41,0-2.75-.31-4-.93-4.25-2.09-5.84-7.01-5.91-7.22-.3-.96.15-1.99,1.06-2.42l14.17-6.6c.94-.44,2.07-.08,2.58.82.13.23,3.24,5.77,1.5,10.52-.6,1.62-2.02,3.83-5.45,5.08-1.37.5-2.69.75-3.96.75ZM103.41,151.67c.62,1.11,1.65,2.52,3.16,3.26,1.38.67,2.96.68,4.8,0,1.61-.59,2.61-1.47,3.06-2.69.63-1.71.13-3.91-.46-5.49l-10.56,4.92ZM100.78,150.69h0,0Z"/>
            <path class="cls-1" d="M70.51,159.44c-1.27,0-2.59-.25-3.96-.75-3.42-1.25-4.85-3.45-5.45-5.08-1.74-4.75,1.37-10.28,1.5-10.52.51-.9,1.64-1.26,2.58-.82l14.17,6.6c.91.42,1.37,1.46,1.06,2.42-.07.21-1.66,5.13-5.91,7.22-1.26.62-2.6.93-4,.93ZM65.32,146.75c-.59,1.58-1.09,3.79-.46,5.5.45,1.22,1.45,2.1,3.06,2.69,1.84.67,3.42.67,4.8,0,1.51-.74,2.54-2.15,3.16-3.26l-10.56-4.92Z"/>
          </g>
        </g>
      </g>
    </g>
  </g>
  <path class="cls-1" d="M122.88,238.22c-7.3-1.66-13.24-7.54-16.71-16.56-2.56-6.66-3.61-14.53-2.8-21.05,1.32-10.55,7.39-14.18,12.63-14.04,1.62.04,3.23.24,4.78.59,6.98,1.59,13.11,6.29,17.71,13.62,3.13,4.97,4.53,9.52,4.68,10.02.08.26.14.52.19.79.49,2.58,2.57,15.8-4.91,23.03-2.73,2.64-7.66,5.41-15.59,3.61Z"/>
  <path class="cls-2" d="M135.52,213.09s3.96,20.7-10.87,17.33c-14.83-3.37-17.01-36.06-8.84-35.85,14.29.36,19.71,18.52,19.71,18.52Z"/>
  <path class="cls-1" d="M71.49,243.17c-7.45,3.25-12.81,1.45-15.99-.63-8.7-5.7-9.14-19.08-9.13-21.7,0-.27.01-.54.04-.81.05-.52.58-5.25,2.73-10.72,3.16-8.05,8.29-13.82,14.85-16.69,1.46-.64,3-1.13,4.59-1.48,5.13-1.11,11.77,1.31,15.04,11.43,2.02,6.25,2.46,14.18,1.19,21.2-1.72,9.51-6.45,16.4-13.32,19.39Z"/>
  <path class="cls-2" d="M54.37,220.85s-.02,21.08,13.92,15c13.93-6.08,9.97-38.6,1.98-36.87-13.97,3.02-15.9,21.88-15.9,21.88Z"/>
  <path class="cls-1" d="M101.87,172.75c-4.31.19-10.35,1.77-13.61,8.5-.69,1.42.9,2.85,2.24,2.02l12.27-7.62c1.38-.85.71-2.97-.9-2.9Z"/>
</svg>