<?xml version="1.0" encoding="UTF-8"?>
<svg id="_レイヤー_1" data-name="レイヤー 1" xmlns="http://www.w3.org/2000/svg" viewBox="0 0 312.11 255.1">
  <defs>
    <style>
      .cls-1 {
        fill: #111f72;
      }

      .cls-2 {
        fill: #ffe000;
      }

      .cls-3 {
        fill: #fff;
      }

      .cls-4 {
        fill: #995323;
      }
    </style>
  </defs>
  <g>
    <g>
      <path class="cls-1" d="M143.09,188.51s-15.82-3.38-16.12,14.02c-.3,17.41,5.83,19.27,5.83,19.27,0,0-18.34-.47-17.59,5.59.75,6.05,45.57,2.9,47.32,0,2.12-3.52,11.89-9.39,4.42-29.8l-23.86-9.08Z"/>
      <path class="cls-1" d="M166.14,217.1c-15.13,0-24.4-3.19-24.79-3.32-1.17-.41-2.23-1.1-3.07-2.01-21.55-23.19-14.68-50.49-8.04-61.69,1.37-2.3,3.87-3.73,6.55-3.73h42.08c.19,0,.38,0,.57.02,2.91-30.81,29.17-54.79,60.25-54.79,33.37,0,60.52,27.15,60.52,60.52s-27.15,60.52-60.52,60.52c-11.34,0-22.4-3.17-32.03-9.18-7.72,8.15-17.16,12.56-27.34,12.75-4.77.59-9.54.9-14.19.9Z"/>
      <path class="cls-2" d="M239.69,99.2c-29.22,0-52.91,23.69-52.91,52.91,0,3.1.28,6.13.79,9.08-2.24-2.72-5.09-5.17-8.71-7.21h-42.08s-16.3,27.47,7.06,52.62c0,0,13.9,4.84,35.93,2.01,12.35-.08,20.93-7.67,26.5-15.46,9.11,7.42,20.73,11.88,33.4,11.88,29.22,0,52.91-23.69,52.91-52.91s-23.69-52.91-52.91-52.91Z"/>
      <path class="cls-2" d="M216.3,178.45s-11.45,38.81-42.24,39l1.7-34.52,40.55-4.48Z"/>
      <circle class="cls-2" cx="239.69" cy="152.11" r="52.91"/>
      <path class="cls-1" d="M194.5,175.81c-1.34,0-2.45-1.06-2.5-2.41-.06-1.62-1.12-39.83,24.91-59.79,1.1-.84,2.67-.63,3.51.46.84,1.1.63,2.67-.46,3.5-23.96,18.37-22.97,55.28-22.96,55.65.05,1.38-1.03,2.54-2.41,2.59-.03,0-.06,0-.09,0Z"/>
      <path class="cls-1" d="M192.13,163.56c-1.28,0-2.37-.98-2.49-2.28-.04-.4-3.18-40.29,29.02-56.31,1.24-.62,2.74-.11,3.35,1.12.62,1.24.11,2.74-1.12,3.35-29.11,14.48-26.3,51.03-26.27,51.4.12,1.37-.9,2.59-2.27,2.71-.07,0-.15,0-.22,0Z"/>
      <path class="cls-3" d="M128.73,144.97s9.11,57.52,24,56.73c14.88-.79,33.75,5.05,17.59-58.97l-41.59,2.24Z"/>
      <path class="cls-1" d="M159.58,240.86c-7.25,0-20.76,0-22-10-.38-3.09.56-6.09,2.65-8.46.93-1.05,3.19-3.61,10.07-5.06-.71-3.35-1.11-7.44-1.02-12.46.17-10.07,4.49-15.4,8.09-18.1,3.53-2.65,8.02-4.05,13-4.05,2.45,0,4.22.34,4.71.44.4.09.79.2,1.17.35l23.86,9.08c2.17.82,3.87,2.55,4.67,4.73,9.24,25.25-1.34,37.03-9.04,40.01-4,1.55-24.27,3.52-36.15,3.52h0Z"/>
      <path class="cls-2" d="M173.4,190.99s-15.82-3.38-16.12,14.02c-.3,17.41,5.83,19.27,5.83,19.27,0,0-18.34-.47-17.59,5.59.75,6.05,44.16,1.22,47.32,0,4.06-1.57,11.89-9.39,4.42-29.8l-23.86-9.08Z"/>
      <path class="cls-2" d="M173.4,190.99s-15.82-3.38-16.12,14.02c-.3,17.41,5.83,19.27,5.83,19.27,0,0-18.34-.47-17.59,5.59.75,6.05,44.16,1.22,47.32,0,4.06-1.57,11.89-9.39,4.42-29.8l-23.86-9.08Z"/>
      <polygon class="cls-2" points="213.75 187.86 196.03 213.12 166.24 200.68 183.4 178.36 213.75 187.86"/>
      <path class="cls-1" d="M259.54,127.13l2.3,1.32c2.87,1.64,3.52,5.49,1.36,7.99l-11.54,13.34.13.39,16.23-3.34c3.26-.67,6.31,1.82,6.31,5.14v2.35c0,3.27-2.96,5.75-6.18,5.16l-16.62-3-.13.39,11.5,12.81c2.23,2.49,1.6,6.4-1.3,8.06l-2.42,1.38c-2.84,1.63-6.47.28-7.55-2.81l-5.9-16.73-.39.39-6.04,16.32c-1.14,3.09-4.82,4.38-7.64,2.67l-2-1.21c-2.78-1.68-3.38-5.46-1.25-7.92l11.65-13.46-.26-.13-15.89,3.14c-3.24.64-6.27-1.84-6.27-5.15v-2.21c0-3.34,3.07-5.83,6.34-5.13l15.56,3.3.26-.39-11.29-13.17c-2.15-2.51-1.47-6.37,1.41-7.99l2.51-1.41c2.84-1.59,6.43-.25,7.52,2.82l5.77,16.28h.39l5.87-16.39c1.1-3.07,4.72-4.41,7.55-2.78Z"/>
      <path class="cls-1" d="M245.64,195.96c-9.23,0-16.5-3.75-19.28-10.08-2.8-6.36-.51-13.94,6.12-20.25,1.6-1.52,4.13-1.46,5.66.14,1.52,1.6,1.46,4.13-.13,5.66-4.08,3.89-5.7,8.1-4.31,11.24,1.62,3.69,6.9,5.7,13.77,5.24,8.5-.56,17.27-5.17,23.45-12.32,4.29-4.96,9.2-13.33,8.29-25.06-.8-10.22-4.89-18.62-11.83-24.29-7.06-5.76-16.71-8.23-27.18-6.94-13.15,1.62-22.4,9.54-27.48,23.52-3.99,10.97-3.83,21.68-3.83,21.79.04,2.21-1.71,4.03-3.92,4.08-.03,0-.06,0-.08,0-2.17,0-3.95-1.73-4-3.91-.01-.49-.21-12.12,4.23-24.46,6.08-16.94,17.88-26.95,34.1-28.96,12.66-1.56,24.45,1.52,33.22,8.68,8.55,6.98,13.78,17.59,14.75,29.86.89,11.31-2.74,22.29-10.21,30.92-7.56,8.73-18.39,14.37-28.97,15.07-.79.05-1.58.08-2.34.08Z"/>
      <g>
        <g>
          <path class="cls-1" d="M189.69,162.6c4.13,6.25,4.35,14.6.63,23.52-2.75,6.59-7.43,12.99-12.53,17.14-8.25,6.72-15.14,5.14-18.84,1.42-1.14-1.15-2.17-2.4-3.05-3.73-3.95-5.97-5.12-13.61-3.39-22.08,1.18-5.76,3.3-10.01,3.54-10.48.12-.24.26-.47.4-.7,1.42-2.2,9.06-13.19,19.47-13.25,3.8-.02,9.27,1.38,13.76,8.16Z"/>
          <path class="cls-2" d="M163.18,172.03s11.45-17.7,19.84-5.01c8.39,12.68-12.63,37.81-18.39,32.02-10.08-10.13-1.44-27.01-1.44-27.01Z"/>
          <path class="cls-1" d="M203.77,222.51c-.08,0-.17,0-.25,0-1.93-.14-3.38-1.81-3.24-3.74,1.26-17.54-6.25-25.21-6.57-25.52-1.36-1.35-1.39-3.56-.05-4.94s3.53-1.43,4.92-.1c.42.4,10.2,10.02,8.69,31.06-.13,1.84-1.67,3.25-3.49,3.25Z"/>
          <g>
            <path class="cls-2" d="M149.97,165.39s6.28,27.7,44.46,25.29c0,0,10.47-.48,12.56-4.51,2.69-5.18-6.77-35.28-17.88-35.28s-38.66,11.11-39.14,14.5Z"/>
            <path class="cls-1" d="M189.11,150.9c11.11,0,20.57,30.09,17.88,35.28-2.09,4.03-12.56,4.51-12.56,4.51-1.6.1-3.13.15-4.62.15-34.07,0-39.84-25.44-39.84-25.44.48-3.38,28.03-14.5,39.14-14.5M189.11,142.9c-8.55,0-21.33,4.55-26.43,6.51-4.49,1.72-8.66,3.59-11.75,5.25-3.94,2.12-8.2,4.78-8.89,9.61-.14.97-.1,1.95.12,2.9.19.86,2.1,8.61,8.99,16.29,6.29,7.02,18.1,15.38,38.65,15.38,1.65,0,3.35-.05,5.06-.16,4.57-.22,15.43-1.52,19.22-8.81,1.2-2.3,2.47-6.55-.23-16.82-1.66-6.28-4.33-12.71-7.33-17.65-3.46-5.7-9.29-12.5-17.42-12.5h0Z"/>
          </g>
          <g>
            <path class="cls-2" d="M134.51,160.31s-.43,28.03-26.66,29.25c0,0-7.17.51-9.14-3.28-2.54-4.88-.29-35.58,7.25-36.63,7.54-1.05,27.75,7.35,28.55,10.65Z"/>
            <path class="cls-1" d="M107.4,149.57c8.39,0,26.36,7.63,27.11,10.74,0,0-.43,28.03-26.66,29.25,0,0-.32.02-.85.02-1.96,0-6.73-.32-8.29-3.3-2.54-4.88-.29-35.58,7.25-36.63.44-.06.92-.09,1.44-.09M107.4,141.57h0c-.89,0-1.75.06-2.55.17-2.84.4-6.85,2.09-9.86,7.93-3.33,6.46-4.54,16.06-4.97,21.2-.52,6.32-.67,14.77,1.59,19.11,2.56,4.9,8.02,7.6,15.38,7.6.6,0,1.06-.02,1.29-.03,13.64-.65,24.27-7.63,29.96-19.65,4.01-8.48,4.25-16.57,4.26-17.47.01-.67-.06-1.34-.22-1.99-1.35-5.63-8.23-9.13-15.45-12.08-3.54-1.44-12.52-4.8-19.44-4.8h0Z"/>
          </g>
          <path class="cls-1" d="M178.3,161.61c-5.72,1.51-11.23,2-16.4,1.46-4.23,3.03-9.26,5.33-14.98,6.84-5.72,1.51-11.23,2-16.4,1.46-4.23,3.03-9.26,5.33-14.98,6.84-20.41,5.4-33.11-3.02-40.17-11.03-7.12-8.08-9.65-17.1-9.91-18.1-.26-1-2.53-10.09-.33-20.64,1.85-8.89,7.24-20.5,22.21-26.96-5.78-7.24-8.43-13.41-8.1-18.83.22-3.66,1.77-6.85,4.47-9.23,1.72-1.52,3.71-2.58,5.89-3.16,4.67-1.23,9.73-.18,15.07,3.14.03-.02.59-.36.59-.36.28-.17.56-.33.84-.48l.47-.26c.35-.19.7-.38,1.05-.56,0,0,.26-.14.35-.18.43-.22.9-.45,1.38-.68l.39-.18c.34-.16.71-.32,1.09-.49l.55-.23c.32-.14.65-.27.97-.4l.62-.24c.33-.13.66-.25.99-.37.19-.07.41-.15.63-.23.34-.12.68-.24,1.03-.35l.65-.21c.37-.12.75-.24,1.14-.35l.56-.17c.59-.17,1.18-.34,1.79-.5s1.2-.31,1.78-.45l.58-.13c.39-.09.78-.18,1.17-.26l.66-.13c.36-.07.72-.14,1.07-.2l.67-.12c.35-.06,1.22-.19,1.22-.19l.46-.07c.37-.05,1.65-.21,1.65-.21.41-.04.81-.08,1.2-.12l.35-.03c.6-.05,1.12-.08,1.63-.1h.41c.35-.03.74-.04,1.12-.05h.56c.31,0,.63,0,.95,0,0,0,.66.02.7.02,3.01-5.53,6.88-8.95,11.55-10.18,2.18-.58,4.43-.63,6.68-.16,3.52.73,6.44,2.75,8.45,5.82,2.96,4.54,3.71,11.22,2.27,20.37,16.21-1.79,26.63,5.64,32.63,12.46,7.12,8.08,9.65,17.1,9.91,18.1s2.53,10.09.33,20.64c-2.17,10.45-9.05,24.05-29.47,29.45Z"/>
          <path class="cls-1" d="M177.28,157.75c-5.83,1.54-11.37,1.93-16.48,1.16-4.07,3.2-9.07,5.6-14.9,7.15-5.83,1.54-11.37,1.93-16.48,1.16-4.07,3.2-9.07,5.6-14.9,7.15-18.44,4.88-29.83-2.64-36.15-9.81-6.63-7.52-8.95-16.12-9.05-16.48s-2.32-8.99-.28-18.8c1.8-8.67,7.26-19.77,22.76-25.23-.05-1-.06-2.15.01-3.4-5.99-7.07-8.87-13.03-8.58-17.73.16-2.58,1.24-4.82,3.12-6.48,1.25-1.11,2.69-1.88,4.27-2.29,4.13-1.09,8.83.28,14.02,4.09.1-.07.39-.27.39-.27.22-.15.45-.31.68-.46.14-.09.29-.19.44-.28.23-.15.46-.29.7-.44.18-.11.32-.19.46-.28.25-.15.51-.29.76-.44,0,0,.33-.19.44-.25.31-.17.63-.34.95-.5,0,0,.23-.12.31-.16.42-.21.85-.43,1.3-.63l.34-.15c.34-.16.68-.31,1.02-.46.12-.05.51-.21.51-.21.3-.13.6-.25.91-.37.19-.08.38-.15.57-.22.3-.12.61-.23.91-.34.2-.07.4-.15.6-.22.32-.11.64-.22.96-.33,0,0,.44-.15.6-.2.35-.11.72-.22,1.08-.33,0,0,.41-.13.54-.16.54-.16,1.1-.32,1.67-.47s1.13-.29,1.68-.42c.13-.03.54-.12.54-.12.37-.08.74-.17,1.11-.24.16-.03.62-.12.62-.12.33-.07.67-.13,1-.19.21-.04.42-.07.63-.11.33-.06.65-.11.96-.15.22-.03.41-.06.61-.09.33-.05.65-.09.98-.12,0,0,.42-.05.55-.07.38-.04.75-.07,1.11-.11l.37-.03c.5-.04.98-.07,1.46-.09.09,0,.34-.01.34-.01.36-.01.72-.03,1.07-.03.12,0,.5,0,.5,0,.3,0,.59,0,.88,0,.17,0,.34,0,.51.01.3,0,.58.02.85.04.17,0,.35.02.53.03.27.02.54.04.81.06,0,0,.35.03.47.04,2.63-5.87,6.05-9.39,10.17-10.48,1.58-.42,3.2-.46,4.84-.11,2.46.51,4.5,1.92,5.91,4.09,2.57,3.94,3.01,10.55,1.3,19.65.69,1.05,1.24,2.05,1.69,2.95,16.17-2.92,26.4,4.03,32.25,10.68,6.63,7.52,8.95,16.12,9.05,16.48s2.32,8.99.28,18.8c-1.95,9.35-8.13,21.52-26.57,26.4Z"/>
          <path class="cls-4" d="M159.52,90.62s-.9-3.41-3.75-7.18c1.42-6.67,3.11-18.99-3.34-20.33-5.85-1.22-9.45,6.07-11.23,11.19-.04,0-.07-.01-.11-.02-.34-.07-.68-.14-1.03-.2,0,0-.02,0-.03,0-.34-.06-.69-.11-1.04-.16-.12-.02-.24-.03-.36-.04-.25-.03-.5-.06-.75-.09-.14-.01-.29-.03-.43-.04-.24-.02-.47-.04-.71-.06-.15-.01-.31-.02-.47-.03-.24-.01-.48-.02-.73-.03-.16,0-.31-.01-.47-.01-.26,0-.52,0-.79,0-.15,0-.3,0-.45,0-.32,0-.64.01-.96.03-.1,0-.2,0-.31.01-.43.02-.86.05-1.31.08-.11,0-.23.02-.34.03-.33.03-.67.06-1.01.1-.17.02-.33.04-.5.06-.29.04-.59.07-.89.11-.19.03-.37.05-.56.08-.29.04-.58.09-.88.14-.19.03-.39.07-.58.1-.3.05-.61.11-.92.17-.19.04-.38.07-.58.12-.34.07-.68.15-1.03.23-.17.04-.33.07-.5.11-.52.12-1.04.25-1.57.39s-1.05.29-1.56.44c-.17.05-.33.1-.49.15-.34.1-.68.21-1.01.31-.19.06-.37.12-.56.18-.3.1-.59.2-.89.3-.19.07-.37.13-.56.2-.28.1-.56.21-.84.31-.18.07-.35.14-.53.21-.28.11-.56.23-.83.34-.16.07-.31.13-.47.2-.31.14-.62.28-.92.42-.1.05-.21.09-.31.14-.4.19-.79.38-1.18.57-.09.05-.18.1-.27.14-.29.15-.57.3-.85.45-.13.07-.26.15-.39.22-.23.13-.46.26-.68.39-.14.08-.27.16-.41.25-.21.13-.42.26-.62.39-.13.08-.26.17-.39.25-.2.13-.4.27-.59.4-.12.08-.24.16-.36.25-.21.15-.41.3-.61.44-.1.07-.19.14-.29.21-.28.21-.55.43-.82.65,0,0-.02.01-.03.02-.27.23-.54.45-.8.68-.03.02-.05.05-.08.07-4.08-3.57-10.81-8.13-15.29-4.18-4.94,4.35,2.62,14.23,7.15,19.32-.61,4.68.29,8.09.29,8.09-31.38,8.3-23.08,39.68-23.08,39.68,0,0,8.3,31.38,39.68,23.08,6.48-1.71,11.26-4.41,14.78-7.61,4.64,1.04,10.13,1.02,16.61-.69,6.48-1.71,11.26-4.41,14.78-7.61,4.64,1.04,10.13,1.02,16.61-.69,31.38-8.3,23.08-39.68,23.08-39.68,0,0-8.3-31.38-39.68-23.08Z"/>
          <g>
            <path class="cls-2" d="M108.12,87.43s-12-13.62-18.8-7.62c-6.81,6,10.15,22.5,10.15,22.5l8.66-14.88Z"/>
            <path class="cls-2" d="M139.86,79.03s3.7-17.77,12.58-15.92c8.88,1.85,2.3,24.58,2.3,24.58l-14.88-8.66Z"/>
          </g>
          <path class="cls-3" d="M159.52,90.62s-6.23-23.54-37.61-15.24c-31.38,8.3-25.16,31.84-25.16,31.84-31.38,8.3-23.08,39.68-23.08,39.68,0,0,8.3,31.38,39.68,23.08,6.48-1.71,11.26-4.41,14.78-7.61,4.64,1.04,10.13,1.02,16.61-.69,6.48-1.71,11.26-4.41,14.78-7.61,4.64,1.04,10.13,1.02,16.61-.69,31.38-8.3,23.08-39.68,23.08-39.68,0,0-8.3-31.38-39.68-23.08Z"/>
          <circle class="cls-1" cx="113.66" cy="115.58" r="6.09"/>
          <circle class="cls-1" cx="148.96" cy="106.24" r="6.09"/>
          <path class="cls-2" d="M131.48,127.42l3.92-1.04,3.92-1.04c-8.87-33.53,6.08-41.41,15.41-43.18-5-5.77-14.73-11.57-32.82-6.78-18.1,4.79-23.69,14.64-25.18,22.12,8.99-3.08,25.88-3.61,34.74,29.91Z"/>
          <path class="cls-1" d="M125.49,122.79l16.75-4.43c2.79-.74,4.85,2.59,2.93,4.76l-6.9,7.8c-.78.88-2.02,1.21-3.13.83l-9.85-3.37c-2.73-.93-2.59-4.85.2-5.58Z"/>
          <path class="cls-1" d="M153.53,127.46c-4.14,1.22-9.62,4.22-11.16,11.53-.32,1.54,1.56,2.55,2.66,1.42l10.07-10.35c1.13-1.16-.02-3.06-1.58-2.6Z"/>
        </g>
        <g>
          <path class="cls-2" d="M95.24,103.18s-13.96,10.94-9.75,12.88c4.22,1.94,44.37-9.78,53.35-15.74,8.97-5.96,15.89-12.63,15.89-12.63,0,0-13.58-8.11-38.73,1.87-25.15,9.98-21.4,11.78-20.76,13.62Z"/>
          <path class="cls-1" d="M86.97,120.25c-1.94,0-2.68-.34-3.15-.56-1.74-.8-2.87-2.32-3.08-4.17-.15-1.29-.59-5.07,9.94-13.8-.02-.67.07-1.42.38-2.23,1.04-2.7,3.61-5.77,23.47-13.65,26.68-10.59,41.64-1.96,42.26-1.58,1.07.64,1.78,1.74,1.92,2.98s-.3,2.47-1.2,3.34c-.29.28-7.28,6.98-16.45,13.08-5.3,3.52-18.74,8.17-29.55,11.34-14.55,4.27-21.26,5.26-24.54,5.26ZM86.67,112.25h0ZM99.07,102c.48,1.58-.05,3.3-1.36,4.32-2.21,1.73-4.4,3.69-6.09,5.38,11.53-2.18,37.92-10.01,45.01-14.72,4.01-2.66,7.61-5.49,10.32-7.75-5.69-1.14-15.58-1.47-29.47,4.04-12.6,5-16.93,7.58-18.42,8.73Z"/>
        </g>
        <g>
          <path class="cls-2" d="M93.63,99.42s15.53-13.39,33.11-17.75c17.59-4.37,35.04,1.79,35.04,1.79,0,0,20.06.52,16.21-14.96-3.84-15.48-33.82-24.92-66.36-17.59-32.53,7.33-38.99,29.04-36.69,36.71,4.37,14.6,8.49,9.85,18.68,11.8Z"/>
          <path class="cls-1" d="M133.97,48.38c22.91,0,41.09,8.3,44.02,20.12,3.6,14.5-13.78,14.96-15.98,14.96-.15,0-.23,0-.23,0,0,0-9.51-3.36-21.56-3.36-4.27,0-8.87.42-13.47,1.57-17.59,4.37-33.11,17.75-33.11,17.75-10.19-1.95-14.31,2.8-18.68-11.8-2.3-7.67,4.15-29.38,36.69-36.71,7.69-1.73,15.24-2.53,22.34-2.53M133.97,40.38c-7.96,0-16.07.92-24.09,2.73-22.77,5.13-33.52,16.43-38.54,25-4.38,7.5-5.9,15.65-4.06,21.81,2.1,7.02,4.5,11.13,8.02,13.75,3.91,2.91,8.09,3.04,11.44,3.14,1.77.05,3.45.1,5.39.48.5.1,1,.14,1.5.14,1.9,0,3.76-.68,5.22-1.94.13-.11,14.37-12.21,29.82-16.05,3.55-.88,7.44-1.33,11.55-1.33,10.42,0,18.84,2.88,18.92,2.91.76.26,1.63.42,2.44.45,0,0,.15,0,.44,0,3.35,0,14.74-.61,20.85-8.42,2.42-3.09,4.88-8.46,2.9-16.47-3.89-15.67-24.7-26.19-51.79-26.19h0Z"/>
        </g>
        <path class="cls-1" d="M100.36,103.03c-3.22,0-8.52-2.55-15.15-15.03-8.57-16.12,6-37.46,6.63-38.36l6.58,4.55c-.12.18-12.42,18.24-6.14,30.05,5.27,9.91,8.41,10.76,8.45,10.77,0,0-.35-.08-.99.11l2.21,7.69c-.45.13-.98.22-1.58.22Z"/>
        <path class="cls-1" d="M136.73,88.1l-.18-8c-.98.02-1.39.4-1.39.4.02-.02,2.07-2.09,2.09-12.54.02-12.9-19.4-19.4-19.6-19.47l2.47-7.61c1.03.33,25.16,8.36,25.13,27.09,0,5.99-.86,19.95-8.52,20.12Z"/>
        <g>
          <polygon class="cls-2" points="109.77 46.64 89.89 39.73 99.58 26.27 114.33 44.32 109.77 46.64"/>
          <path class="cls-1" d="M109.77,50.64c-.44,0-.89-.07-1.31-.22l-19.88-6.91c-1.19-.42-2.12-1.37-2.5-2.57s-.17-2.52.57-3.54l9.69-13.46c.73-1.01,1.88-1.62,3.12-1.66,1.25-.03,2.43.5,3.22,1.47l14.75,18.05c.77.94,1.07,2.17.82,3.36s-1.02,2.19-2.1,2.74l-4.56,2.32c-.57.29-1.19.43-1.81.43ZM96.27,37.71l10.47,3.64-6.96-8.51-3.51,4.88Z"/>
        </g>
        <g>
          <polygon class="cls-2" points="118.61 44.44 132.95 29.04 118.09 21.67 113.5 44.53 118.61 44.44"/>
          <path class="cls-1" d="M113.5,48.53c-1.19,0-2.31-.53-3.07-1.44-.78-.93-1.09-2.16-.85-3.35l4.59-22.86c.25-1.22,1.04-2.26,2.16-2.8,1.12-.55,2.42-.54,3.54,0l14.86,7.37c1.13.56,1.93,1.62,2.16,2.87.23,1.24-.15,2.52-1.01,3.44l-14.34,15.41c-.74.8-1.77,1.26-2.86,1.27l-5.11.09s-.04,0-.07,0ZM120.98,27.57l-2.16,10.78,7.55-8.11-5.38-2.67Z"/>
        </g>
      </g>
    </g>
    <g>
      <path class="cls-1" d="M29.84,10c-4.67-2.09-10.76-.33-11.12-.08-.44.03-6.32,2.4-8.71,6.92-2.47,4.69,19.78,48.38,21.31,49.13,1.54.75,3.75.11,3.75.11l2.68-.93.08-.03,2.68-.93s2.13-.86,2.88-2.4c.75-1.54-8.71-49.65-13.55-51.81Z"/>
      <path class="cls-1" d="M52.56,77.39c2.23,6.19-2.38,13.22-9.57,12.98-3.17-.11-6.16-1.77-7.85-4.46-3.41-5.42-.73-12.42,4.97-14.47,4.94-1.78,10.63.9,12.45,5.94Z"/>
    </g>
  </g>
  <g>
    <rect class="cls-2" x="114.32" y="152.92" width="6.12" height="13.53" transform="translate(-59.01 69.33) rotate(-26.56)"/>
    <path class="cls-1" d="M117.09,152.26l6.05,12.1-5.48,2.74-6.05-12.1,5.48-2.74M117.09,144.26c-1.2,0-2.42.27-3.57.85l-5.48,2.74c-3.95,1.98-5.55,6.78-3.58,10.73l6.05,12.1c1.4,2.8,4.23,4.43,7.16,4.43,1.2,0,2.42-.27,3.57-.85l5.48-2.74c1.9-.95,3.34-2.61,4.01-4.63.67-2.01.52-4.21-.43-6.11l-6.05-12.1c-1.4-2.8-4.23-4.43-7.16-4.43h0Z"/>
  </g>
  <g>
    <circle class="cls-3" cx="101.47" cy="122.8" r="29.8"/>
    <path class="cls-1" d="M101.44,92.99c10.93,0,21.46,6.04,26.68,16.48,7.36,14.72,1.39,32.62-13.33,39.98-4.28,2.14-8.82,3.15-13.3,3.15-10.93,0-21.46-6.04-26.68-16.48-7.36-14.72-1.39-32.62,13.33-39.98,4.28-2.14,8.82-3.15,13.3-3.15M101.44,84.99h0c-5.9,0-11.57,1.34-16.88,3.99-18.64,9.32-26.23,32.07-16.91,50.71,6.45,12.9,19.41,20.91,33.83,20.91,5.9,0,11.57-1.34,16.88-3.99,18.64-9.32,26.23-32.07,16.91-50.71-6.45-12.9-19.41-20.91-33.83-20.91h0Z"/>
  </g>
  <circle class="cls-1" cx="96.39" cy="125.52" r="14.71"/>
  <path class="cls-2" d="M76.05,107.23s36.31-12.38,55.03,17.15c0,0,3.33-27.36-23.77-30.98-21.61-2.88-31.26,13.83-31.26,13.83Z"/>
  <path class="cls-1" d="M128.03,209.33c-7.58,2.94-12.85.92-15.95-1.29-8.46-6.06-8.33-19.44-8.22-22.06.01-.27.04-.54.07-.8.08-.52.8-5.22,3.17-10.6,3.49-7.92,8.86-13.47,15.53-16.06,1.49-.58,3.05-1.01,4.64-1.28,5.17-.9,11.7,1.8,14.55,12.05,1.76,6.33,1.87,14.27.31,21.23-2.12,9.43-7.13,16.11-14.11,18.82Z"/>
  <path class="cls-2" d="M111.86,186.31s-.89,21.06,13.28,15.56c14.18-5.5,11.56-38.15,3.51-36.76-14.08,2.44-16.8,21.2-16.8,21.2Z"/>
</svg>