<svg xmlns="http://www.w3.org/2000/svg" width="1440" height="1180" viewBox="0 0 1440 1180" aria-hidden="true">
  <path fill="#20bfd2" fill-opacity=".16" d="M-96 180c90-72 177-86 261-41 72 38 133 28 205-23 95-68 211-50 347 54-129 8-208 49-237 123-26 68-92 102-198 102-99 0-176 35-231 106-55 72-105 105-151 100z"/>
  <path fill="#1936c9" fill-opacity=".085" d="M840 72c136 24 254 77 354 159 86 70 169 109 250 116v145c-103-6-194-45-273-117-93-84-207-134-342-149z"/>
  <path fill="#071024" fill-opacity=".065" d="M-140 744c126-44 236-39 331 16 86 50 176 56 270 17-98 79-215 110-351 94-114-13-201-50-250-111z"/>
  <path fill="#20bfd2" fill-opacity=".13" d="M1090 650c79-38 159-35 241 8 52 27 107 31 164 12v250c-91-13-159-45-203-97-41-48-95-63-163-46-69 18-125 3-168-45 24-34 67-61 129-82z"/>
  <path fill="#ffd91a" fill-opacity=".17" d="M104 956c96-24 186-10 269 41 77 48 151 62 222 42-64 70-150 107-258 110-104 3-192-29-265-96z"/>
  <path fill="#f45aa7" fill-opacity=".11" d="M1038 1008c73-42 151-47 234-16 61 23 118 19 172-10v116c-76 39-157 45-242 18-70-22-134-8-193 43-28-58-18-109 29-151z"/>
  <path fill="#1936c9" fill-opacity=".10" d="M525 559c190-56 363-59 519-10 112 35 245 42 399 20v97c-164 19-310 10-436-27-156-46-326-37-511 29z"/>
  <path fill="#071024" fill-opacity=".055" d="M1320 56c48 0 88 17 120 51v74c-48-7-89-23-124-47-39-26-84-37-136-33 31-30 78-45 140-45z"/>
  <ellipse cx="230" cy="705" rx="34" ry="22" fill="#20bfd2" fill-opacity=".20" transform="rotate(-19 230 705)"/>
  <ellipse cx="1232" cy="384" rx="44" ry="25" fill="#20bfd2" fill-opacity=".17" transform="rotate(-23 1232 384)"/>
  <ellipse cx="344" cy="222" rx="22" ry="35" fill="#1936c9" fill-opacity=".12" transform="rotate(-29 344 222)"/>
  <ellipse cx="1114" cy="210" rx="18" ry="28" fill="#f45aa7" fill-opacity=".12" transform="rotate(17 1114 210)"/>
  <ellipse cx="966" cy="910" rx="18" ry="28" fill="#ffd91a" fill-opacity=".20" transform="rotate(34 966 910)"/>
</svg>
